<mxfile host="app.diagrams.net" modified="2023-12-25T02:16:28.779Z" agent="Mozilla/5.0 (Windows NT 10.0; Win64; x64) AppleWebKit/537.36 (KHTML, like Gecko) Chrome/119.0.0.0 Safari/537.36" etag="fz_EqJsYUHDwfC0OyF7c" version="22.1.11" type="github">
  <diagram name="第 1 页" id="vhDelsi0ivXJpz2hamxe">
    <mxGraphModel dx="1050" dy="557" grid="1" gridSize="10" guides="1" tooltips="1" connect="1" arrows="1" fold="1" page="1" pageScale="1" pageWidth="827" pageHeight="1169" math="0" shadow="0">
      <root>
        <mxCell id="0" />
        <mxCell id="1" parent="0" />
        <mxCell id="ADBWSJeBuGSmu5Pnx7xk-6" style="edgeStyle=orthogonalEdgeStyle;rounded=0;orthogonalLoop=1;jettySize=auto;html=1;exitX=1;exitY=0.5;exitDx=0;exitDy=0;" edge="1" parent="1" source="ADBWSJeBuGSmu5Pnx7xk-1" target="ADBWSJeBuGSmu5Pnx7xk-5">
          <mxGeometry relative="1" as="geometry" />
        </mxCell>
        <mxCell id="ADBWSJeBuGSmu5Pnx7xk-1" value="&lt;font style=&quot;font-size: 24px;&quot;&gt;营气&lt;/font&gt;" style="ellipse;whiteSpace=wrap;html=1;" vertex="1" parent="1">
          <mxGeometry x="380" y="80" width="120" height="80" as="geometry" />
        </mxCell>
        <mxCell id="ADBWSJeBuGSmu5Pnx7xk-8" style="edgeStyle=orthogonalEdgeStyle;rounded=0;orthogonalLoop=1;jettySize=auto;html=1;exitX=1;exitY=0.5;exitDx=0;exitDy=0;" edge="1" parent="1" source="ADBWSJeBuGSmu5Pnx7xk-2" target="ADBWSJeBuGSmu5Pnx7xk-5">
          <mxGeometry relative="1" as="geometry" />
        </mxCell>
        <mxCell id="ADBWSJeBuGSmu5Pnx7xk-2" value="&lt;font style=&quot;font-size: 24px;&quot;&gt;肾精&lt;/font&gt;" style="ellipse;whiteSpace=wrap;html=1;" vertex="1" parent="1">
          <mxGeometry x="370" y="300" width="120" height="80" as="geometry" />
        </mxCell>
        <mxCell id="ADBWSJeBuGSmu5Pnx7xk-7" style="edgeStyle=orthogonalEdgeStyle;rounded=0;orthogonalLoop=1;jettySize=auto;html=1;exitX=1;exitY=0.5;exitDx=0;exitDy=0;" edge="1" parent="1" source="ADBWSJeBuGSmu5Pnx7xk-3" target="ADBWSJeBuGSmu5Pnx7xk-5">
          <mxGeometry relative="1" as="geometry" />
        </mxCell>
        <mxCell id="ADBWSJeBuGSmu5Pnx7xk-3" value="&lt;font style=&quot;font-size: 24px;&quot;&gt;津液&lt;/font&gt;" style="ellipse;whiteSpace=wrap;html=1;" vertex="1" parent="1">
          <mxGeometry x="370" y="200" width="120" height="80" as="geometry" />
        </mxCell>
        <mxCell id="ADBWSJeBuGSmu5Pnx7xk-5" value="血" style="ellipse;whiteSpace=wrap;html=1;aspect=fixed;" vertex="1" parent="1">
          <mxGeometry x="580" y="200" width="80" height="80" as="geometry" />
        </mxCell>
      </root>
    </mxGraphModel>
  </diagram>
</mxfile>
